# xmcd
#
# Track frame offsets: 
#        150
#        13200
#        26775
#        40894
#        54542
#        67896
#        82386
#        97058
#        110654
#        124610
#        137040
#        149031
#        159508
#        172059
#        184903
#        199306
#        213335
#        226523
#
# Disc length: 3195 seconds
#
# Revision: 3
# Processed by: cddbd v1.5.2PL0 Copyright (c) Steve Scherf et al.
# Submitted via: ExactAudioCopy v0.99pb5
#
DISCID=100c7912
DTITLE=Various Artist - Verve Jazzclub Highlights - The History of Jazz Vol.1
DTITLE=Various Artist - CD2 - The 30s
DYEAR=2008
DGENRE=Jazz
TTITLE0=Jack Winn and His Dallas Dandies - Loved One
TTITLE1=Luis Russel and His Orchestra - Case On Dawn
TTITLE2=Casa Loma Orchestra - White Jazz
TTITLE3=Joe Venuti, Eddie Lang and Their All Star Orchestra - After you'
TTITLE3=re gone
TTITLE4=Fletcher Handerson and His Orchestra - Down South Camp Meeting
TTITLE5=Earl Hines and His Orchestra - Rock And Rye
TTITLE6=Adrian Rollini and His Orchestra - Davenport Blues
TTITLE7=Chick Webb and his Orchestra - Blue Lou
TTITLE8=Jimmie Lunceford and His Orchestra - Four Or Five Times
TTITLE9=Bunny Bergian and His Blue Boys - I'm Coming, Virginia
TTITLE10=Andy Kirk and His Twelve Clouds Of Joy - Walkin' And Swingin'
TTITLE11=Stuff Smith and His Onxy Club Boys - Twilight In Turkey
TTITLE12=Count Basie and His Orchestra - Swingin' The Blues
TTITLE13=Lester Young and The Kansas City Six - I Want A Girl
TTITLE14=Billie Holiday - Strange Fruit
TTITLE15=Fletcher Henderson and His Orchestra - Wild Party
TTITLE16=Mildred Bailey and Her Alley Cats - Honeysuckle Rose
TTITLE17=Roy Eldridge and His Orchestra - Christopher Columbus
EXTD=YEAR: 2008
EXTT0=
EXTT1=
EXTT2=
EXTT3=
EXTT4=
EXTT5=
EXTT6=
EXTT7=
EXTT8=
EXTT9=
EXTT10=
EXTT11=
EXTT12=
EXTT13=
EXTT14=
EXTT15=
EXTT16=
EXTT17=
PLAYORDER=
